<svg width="22" height="22" viewBox="0 0 22 22" fill="none" xmlns="http://www.w3.org/2000/svg">
<path d="M6.41667 15.5833V9.16667M19.25 7.33333V14.6667C19.25 15.8822 18.7671 17.048 17.9076 17.9076C17.048 18.7671 15.8822 19.25 14.6667 19.25H7.33333C6.11776 19.25 4.95197 18.7671 4.09243 17.9076C3.23289 17.048 2.75 15.8822 2.75 14.6667V7.33333C2.75 6.11776 3.23289 4.95197 4.09243 4.09243C4.95197 3.23289 6.11776 2.75 7.33333 2.75H14.6667C15.8822 2.75 17.048 3.23289 17.9076 4.09243C18.7671 4.95197 19.25 6.11776 19.25 7.33333Z" stroke="#F0F0F0" stroke-linecap="round" stroke-linejoin="round"/>
<path d="M10.0834 15.5834V12.6042M10.0834 9.16669V12.6042M10.0834 12.6042C10.0834 9.16669 15.5834 9.16669 15.5834 12.6042V15.5834M6.41675 6.42585L6.42591 6.41577" stroke="#F0F0F0" stroke-linecap="round" stroke-linejoin="round"/>
</svg>
