<svg width="22" height="22" viewBox="0 0 22 22" fill="none" xmlns="http://www.w3.org/2000/svg">
<path d="M8.25008 8.25L12.3751 11L16.5001 8.25M2.75008 12.375H4.58341M0.916748 9.625H4.58341" stroke="#F0F0F0" stroke-linecap="round" stroke-linejoin="round"/>
<path d="M4.58325 6.87504V6.41671C4.58325 5.93048 4.77641 5.46416 5.12022 5.12034C5.46404 4.77653 5.93035 4.58337 6.41659 4.58337H18.3333C18.8195 4.58337 19.2858 4.77653 19.6296 5.12034C19.9734 5.46416 20.1666 5.93048 20.1666 6.41671V15.5834C20.1666 16.0696 19.9734 16.5359 19.6296 16.8797C19.2858 17.2236 18.8195 17.4167 18.3333 17.4167H6.41659C5.93035 17.4167 5.46404 17.2236 5.12022 16.8797C4.77641 16.5359 4.58325 16.0696 4.58325 15.5834V15.125" stroke="#F0F0F0" stroke-linecap="round"/>
</svg>
